<svg id="visual" viewBox="0 0 900 675" width="900" height="675" xmlns="http://www.w3.org/2000/svg" xmlns:xlink="http://www.w3.org/1999/xlink" version="1.1"><rect x="0" y="0" width="900" height="675" fill="#fff"></rect><defs><linearGradient id="grad1_0" x1="25%" y1="0%" x2="100%" y2="100%"><stop offset="23.333333333333336%" stop-color="#6c913f" stop-opacity="1"></stop><stop offset="76.66666666666666%" stop-color="#6c913f" stop-opacity="1"></stop></linearGradient></defs><defs><linearGradient id="grad1_1" x1="25%" y1="0%" x2="100%" y2="100%"><stop offset="23.333333333333336%" stop-color="#6c913f" stop-opacity="1"></stop><stop offset="76.66666666666666%" stop-color="#b5c79c" stop-opacity="1"></stop></linearGradient></defs><defs><linearGradient id="grad1_2" x1="25%" y1="0%" x2="100%" y2="100%"><stop offset="23.333333333333336%" stop-color="#ffffff" stop-opacity="1"></stop><stop offset="76.66666666666666%" stop-color="#b5c79c" stop-opacity="1"></stop></linearGradient></defs><defs><linearGradient id="grad2_0" x1="0%" y1="0%" x2="75%" y2="100%"><stop offset="23.333333333333336%" stop-color="#6c913f" stop-opacity="1"></stop><stop offset="76.66666666666666%" stop-color="#6c913f" stop-opacity="1"></stop></linearGradient></defs><defs><linearGradient id="grad2_1" x1="0%" y1="0%" x2="75%" y2="100%"><stop offset="23.333333333333336%" stop-color="#b5c79c" stop-opacity="1"></stop><stop offset="76.66666666666666%" stop-color="#6c913f" stop-opacity="1"></stop></linearGradient></defs><defs><linearGradient id="grad2_2" x1="0%" y1="0%" x2="75%" y2="100%"><stop offset="23.333333333333336%" stop-color="#b5c79c" stop-opacity="1"></stop><stop offset="76.66666666666666%" stop-color="#ffffff" stop-opacity="1"></stop></linearGradient></defs><g transform="translate(900, 0)"><path d="M0 562.5C-47.9 546.9 -95.8 531.2 -136.9 511C-178 490.7 -212.4 465.8 -260.5 451.2C-308.6 436.6 -370.6 432.3 -397.7 397.7C-424.9 363.2 -417.3 298.3 -438.2 253C-459.2 207.7 -508.7 182 -534.2 143.1C-559.6 104.2 -561.1 52.1 -562.5 0L0 0Z" fill="#dae3cd"></path><path d="M0 375C-31.9 364.6 -63.9 354.2 -91.3 340.6C-118.7 327.1 -141.6 310.5 -173.7 300.8C-205.8 291.1 -247.1 288.2 -265.2 265.2C-283.3 242.1 -278.2 198.9 -292.1 168.7C-306.1 138.5 -339.1 121.4 -356.1 95.4C-373.1 69.5 -374 34.7 -375 0L0 0Z" fill="#91ac6d"></path><path d="M0 187.5C-16 182.3 -31.9 177.1 -45.6 170.3C-59.3 163.6 -70.8 155.3 -86.8 150.4C-102.9 145.5 -123.5 144.1 -132.6 132.6C-141.6 121.1 -139.1 99.4 -146.1 84.3C-153.1 69.2 -169.6 60.7 -178.1 47.7C-186.5 34.7 -187 17.4 -187.5 0L0 0Z" fill="#6c913f"></path></g><g transform="translate(0, 675)"><path d="M0 -562.5C34 -503 67.9 -443.5 117.5 -438.5C167.1 -433.6 232.3 -483.2 274.5 -475.4C316.7 -467.7 336 -402.5 355 -355C373.9 -307.5 392.6 -277.6 428.7 -247.5C464.7 -217.4 518.1 -186.9 543.3 -145.6C568.5 -104.3 565.5 -52.1 562.5 0L0 0Z" fill="#dae3cd"></path><path d="M0 -375C22.6 -335.3 45.3 -295.6 78.3 -292.4C111.4 -289.1 154.8 -322.2 183 -317C211.2 -311.8 224 -268.3 236.6 -236.6C249.3 -205 261.8 -185.1 285.8 -165C309.8 -144.9 345.4 -124.6 362.2 -97.1C379 -69.5 377 -34.8 375 0L0 0Z" fill="#91ac6d"></path><path d="M0 -187.5C11.3 -167.7 22.6 -147.8 39.2 -146.2C55.7 -144.5 77.4 -161.1 91.5 -158.5C105.6 -155.9 112 -134.2 118.3 -118.3C124.6 -102.5 130.9 -92.5 142.9 -82.5C154.9 -72.5 172.7 -62.3 181.1 -48.5C189.5 -34.8 188.5 -17.4 187.5 0L0 0Z" fill="#6c913f"></path></g></svg>