<svg id="visual" viewBox="0 0 900 675" width="900" height="675" xmlns="http://www.w3.org/2000/svg" xmlns:xlink="http://www.w3.org/1999/xlink" version="1.1"><rect x="0" y="0" width="900" height="675" fill="#fff"></rect><path d="M0 449L30 435.2C60 421.3 120 393.7 180 398.2C240 402.7 300 439.3 360 447.7C420 456 480 436 540 417C600 398 660 380 720 380.7C780 381.3 840 400.7 870 410.3L900 420L900 676L870 676C840 676 780 676 720 676C660 676 600 676 540 676C480 676 420 676 360 676C300 676 240 676 180 676C120 676 60 676 30 676L0 676Z" fill="#ffffff"></path><path d="M0 501L30 487.7C60 474.3 120 447.7 180 437.8C240 428 300 435 360 440.3C420 445.7 480 449.3 540 451C600 452.7 660 452.3 720 458.3C780 464.3 840 476.7 870 482.8L900 489L900 676L870 676C840 676 780 676 720 676C660 676 600 676 540 676C480 676 420 676 360 676C300 676 240 676 180 676C120 676 60 676 30 676L0 676Z" fill="#dae3cd"></path><path d="M0 580L30 572C60 564 120 548 180 535.5C240 523 300 514 360 505.3C420 496.7 480 488.3 540 499.8C600 511.3 660 542.7 720 553.7C780 564.7 840 555.3 870 550.7L900 546L900 676L870 676C840 676 780 676 720 676C660 676 600 676 540 676C480 676 420 676 360 676C300 676 240 676 180 676C120 676 60 676 30 676L0 676Z" fill="#b5c79c"></path><path d="M0 594L30 596.5C60 599 120 604 180 596.2C240 588.3 300 567.7 360 562.8C420 558 480 569 540 570C600 571 660 562 720 556.7C780 551.3 840 549.7 870 548.8L900 548L900 676L870 676C840 676 780 676 720 676C660 676 600 676 540 676C480 676 420 676 360 676C300 676 240 676 180 676C120 676 60 676 30 676L0 676Z" fill="#91ac6d"></path><path d="M0 646L30 640.3C60 634.7 120 623.3 180 624.7C240 626 300 640 360 642.8C420 645.7 480 637.3 540 630.8C600 624.3 660 619.7 720 621.7C780 623.7 840 632.3 870 636.7L900 641L900 676L870 676C840 676 780 676 720 676C660 676 600 676 540 676C480 676 420 676 360 676C300 676 240 676 180 676C120 676 60 676 30 676L0 676Z" fill="#6c913f"></path></svg>