<svg id="visual" viewBox="0 0 900 675" width="900" height="675" xmlns="http://www.w3.org/2000/svg" xmlns:xlink="http://www.w3.org/1999/xlink" version="1.1"><path d="M0 170L37.5 171.2C75 172.3 150 174.7 225 169C300 163.3 375 149.7 450 146.2C525 142.7 600 149.3 675 142.7C750 136 825 116 862.5 106L900 96L900 0L862.5 0C825 0 750 0 675 0C600 0 525 0 450 0C375 0 300 0 225 0C150 0 75 0 37.5 0L0 0Z" fill="#ffffff"></path><path d="M0 231L37.5 236.5C75 242 150 253 225 253C300 253 375 242 450 239.8C525 237.7 600 244.3 675 246.5C750 248.7 825 246.3 862.5 245.2L900 244L900 94L862.5 104C825 114 750 134 675 140.7C600 147.3 525 140.7 450 144.2C375 147.7 300 161.3 225 167C150 172.7 75 170.3 37.5 169.2L0 168Z" fill="#b9c6a4"></path><path d="M0 258L37.5 269.2C75 280.3 150 302.7 225 307.2C300 311.7 375 298.3 450 297.2C525 296 600 307 675 311.5C750 316 825 314 862.5 313L900 312L900 242L862.5 243.2C825 244.3 750 246.7 675 244.5C600 242.3 525 235.7 450 237.8C375 240 300 251 225 251C150 251 75 240 37.5 234.5L0 229Z" fill="#749050"></path><path d="M0 285L37.5 300.7C75 316.3 150 347.7 225 354.3C300 361 375 343 450 339.7C525 336.3 600 347.7 675 359C750 370.3 825 381.7 862.5 387.3L900 393L900 310L862.5 311C825 312 750 314 675 309.5C600 305 525 294 450 295.2C375 296.3 300 309.7 225 305.2C150 300.7 75 278.3 37.5 267.2L0 256Z" fill="#597b2f"></path><path d="M0 359L37.5 369.2C75 379.3 150 399.7 225 406.3C300 413 375 406 450 406C525 406 600 413 675 419.8C750 426.7 825 433.3 862.5 436.7L900 440L900 391L862.5 385.3C825 379.7 750 368.3 675 357C600 345.7 525 334.3 450 337.7C375 341 300 359 225 352.3C150 345.7 75 314.3 37.5 298.7L0 283Z" fill="#749050"></path><path d="M0 460L37.5 466.8C75 473.7 150 487.3 225 487.3C300 487.3 375 473.7 450 472.5C525 471.3 600 482.7 675 484.8C750 487 825 480 862.5 476.5L900 473L900 438L862.5 434.7C825 431.3 750 424.7 675 417.8C600 411 525 404 450 404C375 404 300 411 225 404.3C150 397.7 75 377.3 37.5 367.2L0 357Z" fill="#b9c6a4"></path><path d="M0 676L37.5 676C75 676 150 676 225 676C300 676 375 676 450 676C525 676 600 676 675 676C750 676 825 676 862.5 676L900 676L900 471L862.5 474.5C825 478 750 485 675 482.8C600 480.7 525 469.3 450 470.5C375 471.7 300 485.3 225 485.3C150 485.3 75 471.7 37.5 464.8L0 458Z" fill="#ffffff"></path></svg>