<svg id="visual" viewBox="0 0 900 675" width="900" height="675" xmlns="http://www.w3.org/2000/svg" xmlns:xlink="http://www.w3.org/1999/xlink" version="1.1"><path d="M0 75L37.5 72.8C75 70.7 150 66.3 225 64.2C300 62 375 62 450 63.2C525 64.3 600 66.7 675 63.3C750 60 825 51 862.5 46.5L900 42L900 0L862.5 0C825 0 750 0 675 0C600 0 525 0 450 0C375 0 300 0 225 0C150 0 75 0 37.5 0L0 0Z" fill="#ffffff"></path><path d="M0 123L37.5 118.5C75 114 150 105 225 106C300 107 375 118 450 119C525 120 600 111 675 101C750 91 825 80 862.5 74.5L900 69L900 40L862.5 44.5C825 49 750 58 675 61.3C600 64.7 525 62.3 450 61.2C375 60 300 60 225 62.2C150 64.3 75 68.7 37.5 70.8L0 73Z" fill="#b9c6a4"></path><path d="M0 204L37.5 193.8C75 183.7 150 163.3 225 166.7C300 170 375 197 450 210.5C525 224 600 224 675 209.3C750 194.7 825 165.3 862.5 150.7L900 136L900 67L862.5 72.5C825 78 750 89 675 99C600 109 525 118 450 117C375 116 300 105 225 104C150 103 75 112 37.5 116.5L0 121Z" fill="#749050"></path><path d="M0 339L37.5 339C75 339 150 339 225 346.8C300 354.7 375 370.3 450 377C525 383.7 600 381.3 675 365.5C750 349.7 825 320.3 862.5 305.7L900 291L900 134L862.5 148.7C825 163.3 750 192.7 675 207.3C600 222 525 222 450 208.5C375 195 300 168 225 164.7C150 161.3 75 181.7 37.5 191.8L0 202Z" fill="#597b2f"></path><path d="M0 440L37.5 433.2C75 426.3 150 412.7 225 425C300 437.3 375 475.7 450 487C525 498.3 600 482.7 675 468C750 453.3 825 439.7 862.5 432.8L900 426L900 289L862.5 303.7C825 318.3 750 347.7 675 363.5C600 379.3 525 381.7 450 375C375 368.3 300 352.7 225 344.8C150 337 75 337 37.5 337L0 337Z" fill="#749050"></path><path d="M0 514L37.5 503.8C75 493.7 150 473.3 225 480.2C300 487 375 521 450 533.5C525 546 600 537 675 526.8C750 516.7 825 505.3 862.5 499.7L900 494L900 424L862.5 430.8C825 437.7 750 451.3 675 466C600 480.7 525 496.3 450 485C375 473.7 300 435.3 225 423C150 410.7 75 424.3 37.5 431.2L0 438Z" fill="#b9c6a4"></path><path d="M0 676L37.5 676C75 676 150 676 225 676C300 676 375 676 450 676C525 676 600 676 675 676C750 676 825 676 862.5 676L900 676L900 492L862.5 497.7C825 503.3 750 514.7 675 524.8C600 535 525 544 450 531.5C375 519 300 485 225 478.2C150 471.3 75 491.7 37.5 501.8L0 512Z" fill="#ffffff"></path></svg>