<svg id="visual" viewBox="0 0 900 675" width="900" height="675" xmlns="http://www.w3.org/2000/svg" xmlns:xlink="http://www.w3.org/1999/xlink" version="1.1"><path d="M0 434L21.5 427.2C43 420.3 86 406.7 128.8 401.3C171.7 396 214.3 399 257.2 411.7C300 424.3 343 446.7 385.8 446C428.7 445.3 471.3 421.7 514.2 405C557 388.3 600 378.7 642.8 389.5C685.7 400.3 728.3 431.7 771.2 441C814 450.3 857 437.7 878.5 431.3L900 425L900 676L878.5 676C857 676 814 676 771.2 676C728.3 676 685.7 676 642.8 676C600 676 557 676 514.2 676C471.3 676 428.7 676 385.8 676C343 676 300 676 257.2 676C214.3 676 171.7 676 128.8 676C86 676 43 676 21.5 676L0 676Z" fill="#ffffff"></path><path d="M0 476L21.5 469.3C43 462.7 86 449.3 128.8 441.7C171.7 434 214.3 432 257.2 429.2C300 426.3 343 422.7 385.8 433.5C428.7 444.3 471.3 469.7 514.2 474.3C557 479 600 463 642.8 464.7C685.7 466.3 728.3 485.7 771.2 490.5C814 495.3 857 485.7 878.5 480.8L900 476L900 676L878.5 676C857 676 814 676 771.2 676C728.3 676 685.7 676 642.8 676C600 676 557 676 514.2 676C471.3 676 428.7 676 385.8 676C343 676 300 676 257.2 676C214.3 676 171.7 676 128.8 676C86 676 43 676 21.5 676L0 676Z" fill="#d5ddc8"></path><path d="M0 564L21.5 551.7C43 539.3 86 514.7 128.8 506.3C171.7 498 214.3 506 257.2 510.8C300 515.7 343 517.3 385.8 523.2C428.7 529 471.3 539 514.2 535C557 531 600 513 642.8 506.8C685.7 500.7 728.3 506.3 771.2 513.5C814 520.7 857 529.3 878.5 533.7L900 538L900 676L878.5 676C857 676 814 676 771.2 676C728.3 676 685.7 676 642.8 676C600 676 557 676 514.2 676C471.3 676 428.7 676 385.8 676C343 676 300 676 257.2 676C214.3 676 171.7 676 128.8 676C86 676 43 676 21.5 676L0 676Z" fill="#abbb93"></path><path d="M0 538L21.5 540.5C43 543 86 548 128.8 559.3C171.7 570.7 214.3 588.3 257.2 592.3C300 596.3 343 586.7 385.8 579.7C428.7 572.7 471.3 568.3 514.2 561.2C557 554 600 544 642.8 539.5C685.7 535 728.3 536 771.2 543.3C814 550.7 857 564.3 878.5 571.2L900 578L900 676L878.5 676C857 676 814 676 771.2 676C728.3 676 685.7 676 642.8 676C600 676 557 676 514.2 676C471.3 676 428.7 676 385.8 676C343 676 300 676 257.2 676C214.3 676 171.7 676 128.8 676C86 676 43 676 21.5 676L0 676Z" fill="#829b60"></path><path d="M0 601L21.5 598.2C43 595.3 86 589.7 128.8 597C171.7 604.3 214.3 624.7 257.2 627.2C300 629.7 343 614.3 385.8 605C428.7 595.7 471.3 592.3 514.2 600.8C557 609.3 600 629.7 642.8 628.3C685.7 627 728.3 604 771.2 599.2C814 594.3 857 607.7 878.5 614.3L900 621L900 676L878.5 676C857 676 814 676 771.2 676C728.3 676 685.7 676 642.8 676C600 676 557 676 514.2 676C471.3 676 428.7 676 385.8 676C343 676 300 676 257.2 676C214.3 676 171.7 676 128.8 676C86 676 43 676 21.5 676L0 676Z" fill="#597b2f"></path></svg>