<svg id="visual" viewBox="0 0 900 675" width="900" height="675" xmlns="http://www.w3.org/2000/svg" xmlns:xlink="http://www.w3.org/1999/xlink" version="1.1"><path d="M0 163L37.5 157C75 151 150 139 225 142C300 145 375 163 450 168.7C525 174.3 600 167.7 675 167.5C750 167.3 825 173.7 862.5 176.8L900 180L900 0L862.5 0C825 0 750 0 675 0C600 0 525 0 450 0C375 0 300 0 225 0C150 0 75 0 37.5 0L0 0Z" fill="#597b2f"></path><path d="M0 91L37.5 98.8C75 106.7 150 122.3 225 122.5C300 122.7 375 107.3 450 106.2C525 105 600 118 675 119.7C750 121.3 825 111.7 862.5 106.8L900 102L900 0L862.5 0C825 0 750 0 675 0C600 0 525 0 450 0C375 0 300 0 225 0C150 0 75 0 37.5 0L0 0Z" fill="#5f8234"></path><path d="M0 111L37.5 101C75 91 150 71 225 68C300 65 375 79 450 87.7C525 96.3 600 99.7 675 91.8C750 84 825 65 862.5 55.5L900 46L900 0L862.5 0C825 0 750 0 675 0C600 0 525 0 450 0C375 0 300 0 225 0C150 0 75 0 37.5 0L0 0Z" fill="#658a3a"></path><path d="M0 58L37.5 51.2C75 44.3 150 30.7 225 27.7C300 24.7 375 32.3 450 37.2C525 42 600 44 675 49C750 54 825 62 862.5 66L900 70L900 0L862.5 0C825 0 750 0 675 0C600 0 525 0 450 0C375 0 300 0 225 0C150 0 75 0 37.5 0L0 0Z" fill="#6c913f"></path></svg>