<svg id="visual" viewBox="0 0 900 675" width="900" height="675" xmlns="http://www.w3.org/2000/svg" xmlns:xlink="http://www.w3.org/1999/xlink" version="1.1"><path d="M0 164L21.5 155.7C43 147.3 86 130.7 128.8 131C171.7 131.3 214.3 148.7 257.2 152.7C300 156.7 343 147.3 385.8 148.7C428.7 150 471.3 162 514.2 159.7C557 157.3 600 140.7 642.8 132.8C685.7 125 728.3 126 771.2 137.3C814 148.7 857 170.3 878.5 181.2L900 192L900 0L878.5 0C857 0 814 0 771.2 0C728.3 0 685.7 0 642.8 0C600 0 557 0 514.2 0C471.3 0 428.7 0 385.8 0C343 0 300 0 257.2 0C214.3 0 171.7 0 128.8 0C86 0 43 0 21.5 0L0 0Z" fill="#597b2f"></path><path d="M0 96L21.5 99C43 102 86 108 128.8 106.3C171.7 104.7 214.3 95.3 257.2 94.5C300 93.7 343 101.3 385.8 108.2C428.7 115 471.3 121 514.2 116.2C557 111.3 600 95.7 642.8 98.5C685.7 101.3 728.3 122.7 771.2 126.3C814 130 857 116 878.5 109L900 102L900 0L878.5 0C857 0 814 0 771.2 0C728.3 0 685.7 0 642.8 0C600 0 557 0 514.2 0C471.3 0 428.7 0 385.8 0C343 0 300 0 257.2 0C214.3 0 171.7 0 128.8 0C86 0 43 0 21.5 0L0 0Z" fill="#90a571"></path><path d="M0 91L21.5 87C43 83 86 75 128.8 74.7C171.7 74.3 214.3 81.7 257.2 85.8C300 90 343 91 385.8 89.5C428.7 88 471.3 84 514.2 80.3C557 76.7 600 73.3 642.8 70.3C685.7 67.3 728.3 64.7 771.2 59.8C814 55 857 48 878.5 44.5L900 41L900 0L878.5 0C857 0 814 0 771.2 0C728.3 0 685.7 0 642.8 0C600 0 557 0 514.2 0C471.3 0 428.7 0 385.8 0C343 0 300 0 257.2 0C214.3 0 171.7 0 128.8 0C86 0 43 0 21.5 0L0 0Z" fill="#c7d1b6"></path><path d="M0 34L21.5 34C43 34 86 34 128.8 35.2C171.7 36.3 214.3 38.7 257.2 45C300 51.3 343 61.7 385.8 59.8C428.7 58 471.3 44 514.2 36.8C557 29.7 600 29.3 642.8 32C685.7 34.7 728.3 40.3 771.2 45.8C814 51.3 857 56.7 878.5 59.3L900 62L900 0L878.5 0C857 0 814 0 771.2 0C728.3 0 685.7 0 642.8 0C600 0 557 0 514.2 0C471.3 0 428.7 0 385.8 0C343 0 300 0 257.2 0C214.3 0 171.7 0 128.8 0C86 0 43 0 21.5 0L0 0Z" fill="#ffffff"></path></svg>