<svg id="visual" viewBox="0 0 900 675" width="900" height="675" xmlns="http://www.w3.org/2000/svg" xmlns:xlink="http://www.w3.org/1999/xlink" version="1.1"><path d="M0 239L21.5 245.8C43 252.7 86 266.3 128.8 271.7C171.7 277 214.3 274 257.2 261.3C300 248.7 343 226.3 385.8 227C428.7 227.7 471.3 251.3 514.2 268C557 284.7 600 294.3 642.8 283.5C685.7 272.7 728.3 241.3 771.2 232C814 222.7 857 235.3 878.5 241.7L900 248L900 0L878.5 0C857 0 814 0 771.2 0C728.3 0 685.7 0 642.8 0C600 0 557 0 514.2 0C471.3 0 428.7 0 385.8 0C343 0 300 0 257.2 0C214.3 0 171.7 0 128.8 0C86 0 43 0 21.5 0L0 0Z" fill="#ffffff"></path><path d="M0 197L21.5 203.7C43 210.3 86 223.7 128.8 231.3C171.7 239 214.3 241 257.2 243.8C300 246.7 343 250.3 385.8 239.5C428.7 228.7 471.3 203.3 514.2 198.7C557 194 600 210 642.8 208.3C685.7 206.7 728.3 187.3 771.2 182.5C814 177.7 857 187.3 878.5 192.2L900 197L900 0L878.5 0C857 0 814 0 771.2 0C728.3 0 685.7 0 642.8 0C600 0 557 0 514.2 0C471.3 0 428.7 0 385.8 0C343 0 300 0 257.2 0C214.3 0 171.7 0 128.8 0C86 0 43 0 21.5 0L0 0Z" fill="#d5ddc8"></path><path d="M0 109L21.5 121.3C43 133.7 86 158.3 128.8 166.7C171.7 175 214.3 167 257.2 162.2C300 157.3 343 155.7 385.8 149.8C428.7 144 471.3 134 514.2 138C557 142 600 160 642.8 166.2C685.7 172.3 728.3 166.7 771.2 159.5C814 152.3 857 143.7 878.5 139.3L900 135L900 0L878.5 0C857 0 814 0 771.2 0C728.3 0 685.7 0 642.8 0C600 0 557 0 514.2 0C471.3 0 428.7 0 385.8 0C343 0 300 0 257.2 0C214.3 0 171.7 0 128.8 0C86 0 43 0 21.5 0L0 0Z" fill="#abbb93"></path><path d="M0 135L21.5 132.5C43 130 86 125 128.8 113.7C171.7 102.3 214.3 84.7 257.2 80.7C300 76.7 343 86.3 385.8 93.3C428.7 100.3 471.3 104.7 514.2 111.8C557 119 600 129 642.8 133.5C685.7 138 728.3 137 771.2 129.7C814 122.3 857 108.7 878.5 101.8L900 95L900 0L878.5 0C857 0 814 0 771.2 0C728.3 0 685.7 0 642.8 0C600 0 557 0 514.2 0C471.3 0 428.7 0 385.8 0C343 0 300 0 257.2 0C214.3 0 171.7 0 128.8 0C86 0 43 0 21.5 0L0 0Z" fill="#829b60"></path><path d="M0 72L21.5 74.8C43 77.7 86 83.3 128.8 76C171.7 68.7 214.3 48.3 257.2 45.8C300 43.3 343 58.7 385.8 68C428.7 77.3 471.3 80.7 514.2 72.2C557 63.7 600 43.3 642.8 44.7C685.7 46 728.3 69 771.2 73.8C814 78.7 857 65.3 878.5 58.7L900 52L900 0L878.5 0C857 0 814 0 771.2 0C728.3 0 685.7 0 642.8 0C600 0 557 0 514.2 0C471.3 0 428.7 0 385.8 0C343 0 300 0 257.2 0C214.3 0 171.7 0 128.8 0C86 0 43 0 21.5 0L0 0Z" fill="#597b2f"></path></svg>